<?xml version="1.0" standalone="no"?>
<!DOCTYPE svg PUBLIC "-//W3C//DTD SVG 20010904//EN"
 "http://www.w3.org/TR/2001/REC-SVG-20010904/DTD/svg10.dtd">
<svg version="1.0" xmlns="http://www.w3.org/2000/svg"
 width="700.000000pt" height="700.000000pt" viewBox="0 0 700.000000 700.000000"
 preserveAspectRatio="xMidYMid meet">
<metadata>
Created by potrace 1.14, written by Peter Selinger 2001-2017
</metadata>
<g transform="translate(0.000000,700.000000) scale(0.100000,-0.100000)"
fill="#000000" stroke="none">
<path d="M527 6376 c-76 -28 -115 -92 -115 -187 0 -95 29 -195 100 -349 69
-150 222 -405 341 -570 26 -36 55 -76 64 -90 87 -122 339 -442 476 -603 l66
-78 -21 -55 c-14 -37 -18 -58 -11 -65 7 -7 4 -27 -7 -62 -10 -29 -25 -87 -35
-130 -17 -70 -21 -77 -39 -71 -12 4 -18 3 -15 0 4 -4 3 -25 -2 -47 -10 -43
-15 -73 -27 -166 -7 -48 -5 -65 5 -76 11 -10 15 -58 18 -198 2 -101 6 -195 9
-209 2 -14 7 -47 11 -74 35 -275 159 -604 326 -863 24 -37 46 -70 49 -73 3 -3
17 -21 30 -40 14 -19 32 -44 41 -55 210 -254 421 -430 689 -573 147 -78 359
-160 485 -188 244 -52 268 -55 505 -59 138 -2 236 1 300 10 132 19 174 26 181
31 3 2 20 6 38 9 94 16 336 98 418 140 24 13 32 8 147 -77 262 -196 327 -243
536 -383 149 -100 292 -191 345 -221 11 -6 79 -45 152 -87 439 -251 779 -356
920 -284 68 36 109 137 92 227 -15 81 -19 98 -38 153 -69 199 -289 577 -483
832 -5 6 -28 37 -53 70 -24 33 -48 65 -52 70 -5 6 -39 51 -78 100 -38 50 -72
92 -75 95 -3 3 -43 52 -90 110 -47 58 -95 116 -107 130 -12 14 -30 35 -40 46
-10 12 -37 43 -60 70 -23 27 -53 63 -67 79 -30 35 -31 43 -12 71 24 34 104
228 135 331 28 89 66 251 77 328 28 193 25 507 -5 675 -6 30 -12 66 -15 80 -2
14 -9 45 -16 70 -7 25 -14 55 -16 68 -3 13 -16 58 -30 100 -150 445 -410 806
-779 1081 -82 61 -238 161 -251 161 -3 0 -18 8 -32 18 -83 58 -427 180 -587
208 -158 28 -244 36 -390 37 -206 2 -314 -7 -470 -40 -11 -2 -31 -6 -45 -9
-174 -34 -447 -142 -623 -247 -85 -51 -84 -51 -147 0 -94 75 -506 349 -705
468 -261 157 -563 300 -732 345 -101 28 -235 35 -286 16z m763 -492 c110 -34
156 -54 325 -140 162 -83 272 -146 443 -257 99 -64 120 -82 111 -93 -6 -8 -15
-14 -20 -14 -4 0 -50 26 -101 58 -51 32 -100 61 -108 65 -8 4 -24 13 -35 20
-149 91 -345 188 -463 229 -202 70 -312 70 -372 2 -17 -20 -31 -47 -31 -64 -1
-17 -2 -36 -3 -42 -8 -60 60 -244 147 -403 42 -77 67 -117 137 -225 17 -27
179 -254 214 -300 30 -39 33 -48 23 -67 -11 -20 -15 -17 -74 60 -34 45 -69 91
-77 102 -9 11 -29 38 -46 60 -16 22 -33 45 -38 50 -4 6 -44 64 -88 130 -221
328 -328 566 -320 711 4 70 15 91 63 124 64 44 155 42 313 -6z m192 -269 c119
-24 467 -182 586 -266 l23 -17 -57 -53 c-108 -101 -193 -193 -262 -283 -12
-16 -22 -22 -22 -15 0 9 -5 6 -12 -6 -6 -11 -20 -29 -30 -40 -11 -11 -14 -21
-9 -23 5 -2 -12 -37 -40 -79 -27 -42 -49 -79 -49 -84 0 -19 -16 -6 -44 34
-164 234 -274 435 -316 577 -60 202 26 297 232 255z m3918 -3165 c3 -3 33 -39
65 -80 33 -41 63 -79 68 -85 4 -5 39 -53 78 -105 39 -52 76 -102 82 -110 25
-31 136 -198 186 -278 70 -112 156 -284 187 -374 35 -101 42 -211 16 -258 -60
-109 -227 -106 -499 9 -225 94 -486 244 -793 454 -63 43 -136 93 -162 110 -53
36 -57 43 -28 52 15 5 61 -21 178 -98 480 -318 812 -476 1007 -480 126 -3 175
34 181 137 9 166 -148 475 -450 881 -104 140 -143 190 -173 224 -21 23 -21 27
-6 43 15 17 17 16 36 -10 12 -15 24 -29 27 -32z m-21 -141 c273 -366 425 -679
399 -818 -31 -167 -243 -152 -623 44 -129 67 -344 194 -431 255 l-53 37 77 54
c167 117 365 306 477 457 33 45 63 81 66 82 3 0 43 -50 88 -111z"/>
</g>
</svg>
